{
    "asset" : {
        "generator" : "Khronos glTF Blender I/O v1.8.19",
        "version" : "2.0"
    },
    "scene" : 0,
    "scenes" : [
        {
            "name" : "Scene",
            "nodes" : [
                0
            ]
        }
    ],
    "nodes" : [
        {
            "mesh" : 0,
            "name" : "\u690d\u7269_\u76c6\u683d17"
        }
    ],
    "materials" : [
        {
            "doubleSided" : true,
            "name" : "ground.016",
            "pbrMetallicRoughness" : {
                "baseColorFactor" : [
                    0.046712279319763184,
                    0.042104873806238174,
                    0.021277138963341713,
                    1
                ],
                "metallicFactor" : 0,
                "roughnessFactor" : 0.9566929340362549
            }
        },
        {
            "doubleSided" : true,
            "name" : "Mat3d66-367642-25-599.001",
            "pbrMetallicRoughness" : {
                "baseColorFactor" : [
                    0.9529410004615784,
                    0.9568629860877991,
                    0.9568629860877991,
                    1
                ],
                "metallicFactor" : 0,
                "roughnessFactor" : 0.24803149700164795
            }
        },
        {
            "doubleSided" : true,
            "name" : "01 - Default11.001",
            "pbrMetallicRoughness" : {
                "baseColorFactor" : [
                    0.019797664135694504,
                    0.07100210338830948,
                    0.007159259635955095,
                    1
                ],
                "metallicFactor" : 0,
                "roughnessFactor" : 0.5
            }
        },
        {
            "doubleSided" : true,
            "name" : "Material #1873466446",
            "pbrMetallicRoughness" : {
                "baseColorFactor" : [
                    0.01945720985531807,
                    0.14771007001399994,
                    0.01938628777861595,
                    1
                ],
                "metallicFactor" : 0,
                "roughnessFactor" : 0.5
            }
        }
    ],
    "meshes" : [
        {
            "name" : "Obj3d66-367642-38-914",
            "primitives" : [
                {
                    "attributes" : {
                        "POSITION" : 0,
                        "NORMAL" : 1,
                        "TEXCOORD_0" : 2
                    },
                    "indices" : 3,
                    "material" : 0
                },
                {
                    "attributes" : {
                        "POSITION" : 4,
                        "NORMAL" : 5,
                        "TEXCOORD_0" : 6
                    },
                    "indices" : 7,
                    "material" : 1
                },
                {
                    "attributes" : {
                        "POSITION" : 8,
                        "NORMAL" : 9,
                        "TEXCOORD_0" : 10
                    },
                    "indices" : 11,
                    "material" : 2
                },
                {
                    "attributes" : {
                        "POSITION" : 12,
                        "NORMAL" : 13,
                        "TEXCOORD_0" : 14
                    },
                    "indices" : 15,
                    "material" : 3
                }
            ]
        }
    ],
    "accessors" : [
        {
            "bufferView" : 0,
            "componentType" : 5126,
            "count" : 289,
            "max" : [
                0.16346600651741028,
                0.5863730311393738,
                0.14253710210323334
            ],
            "min" : [
                -0.1297360062599182,
                0.5447100400924683,
                -0.14820989966392517
            ],
            "type" : "VEC3"
        },
        {
            "bufferView" : 1,
            "componentType" : 5126,
            "count" : 289,
            "type" : "VEC3"
        },
        {
            "bufferView" : 2,
            "componentType" : 5126,
            "count" : 289,
            "type" : "VEC2"
        },
        {
            "bufferView" : 3,
            "componentType" : 5123,
            "count" : 1536,
            "type" : "SCALAR"
        },
        {
            "bufferView" : 4,
            "componentType" : 5126,
            "count" : 714,
            "max" : [
                0.16959500312805176,
                0.597100019454956,
                0.14790908992290497
            ],
            "min" : [
                -0.13541099429130554,
                0,
                -0.15298689901828766
            ],
            "type" : "VEC3"
        },
        {
            "bufferView" : 5,
            "componentType" : 5126,
            "count" : 714,
            "type" : "VEC3"
        },
        {
            "bufferView" : 6,
            "componentType" : 5126,
            "count" : 714,
            "type" : "VEC2"
        },
        {
            "bufferView" : 7,
            "componentType" : 5123,
            "count" : 1716,
            "type" : "SCALAR"
        },
        {
            "bufferView" : 8,
            "componentType" : 5126,
            "count" : 476,
            "max" : [
                0.38904598355293274,
                1.3295619487762451,
                0.25010305643081665
            ],
            "min" : [
                -0.3382890224456787,
                0.5096340179443359,
                -0.26644593477249146
            ],
            "type" : "VEC3"
        },
        {
            "bufferView" : 9,
            "componentType" : 5126,
            "count" : 476,
            "type" : "VEC3"
        },
        {
            "bufferView" : 10,
            "componentType" : 5126,
            "count" : 476,
            "type" : "VEC2"
        },
        {
            "bufferView" : 11,
            "componentType" : 5123,
            "count" : 1704,
            "type" : "SCALAR"
        },
        {
            "bufferView" : 12,
            "componentType" : 5126,
            "count" : 854,
            "max" : [
                0.7169599533081055,
                1.2335280179977417,
                0.600307047367096
            ],
            "min" : [
                -0.496940016746521,
                0.5108970403671265,
                -0.4348289370536804
            ],
            "type" : "VEC3"
        },
        {
            "bufferView" : 13,
            "componentType" : 5126,
            "count" : 854,
            "type" : "VEC3"
        },
        {
            "bufferView" : 14,
            "componentType" : 5126,
            "count" : 854,
            "type" : "VEC2"
        },
        {
            "bufferView" : 15,
            "componentType" : 5123,
            "count" : 2940,
            "type" : "SCALAR"
        }
    ],
    "bufferViews" : [
        {
            "buffer" : 0,
            "byteLength" : 3468,
            "byteOffset" : 0
        },
        {
            "buffer" : 0,
            "byteLength" : 3468,
            "byteOffset" : 3468
        },
        {
            "buffer" : 0,
            "byteLength" : 2312,
            "byteOffset" : 6936
        },
        {
            "buffer" : 0,
            "byteLength" : 3072,
            "byteOffset" : 9248
        },
        {
            "buffer" : 0,
            "byteLength" : 8568,
            "byteOffset" : 12320
        },
        {
            "buffer" : 0,
            "byteLength" : 8568,
            "byteOffset" : 20888
        },
        {
            "buffer" : 0,
            "byteLength" : 5712,
            "byteOffset" : 29456
        },
        {
            "buffer" : 0,
            "byteLength" : 3432,
            "byteOffset" : 35168
        },
        {
            "buffer" : 0,
            "byteLength" : 5712,
            "byteOffset" : 38600
        },
        {
            "buffer" : 0,
            "byteLength" : 5712,
            "byteOffset" : 44312
        },
        {
            "buffer" : 0,
            "byteLength" : 3808,
            "byteOffset" : 50024
        },
        {
            "buffer" : 0,
            "byteLength" : 3408,
            "byteOffset" : 53832
        },
        {
            "buffer" : 0,
            "byteLength" : 10248,
            "byteOffset" : 57240
        },
        {
            "buffer" : 0,
            "byteLength" : 10248,
            "byteOffset" : 67488
        },
        {
            "buffer" : 0,
            "byteLength" : 6832,
            "byteOffset" : 77736
        },
        {
            "buffer" : 0,
            "byteLength" : 5880,
            "byteOffset" : 84568
        }
    ],
    "buffers" : [
        {
            "byteLength" : 90448,
            "uri" : "data:application/octet-stream;base64,"
        }
    ]
}
